REM DIRINDEX 1\2,1\4,1\3\5,1\3\6,1\3\7
REM DIRNAME folder01,folder02,folder03,folder04,folder05,folder06,folder07
TITLE ""
FILE "CD1Track36.mp3" MP3
  TRACK 01 AUDIO
    TITLE "0:"
    INDEX 01 00:00:00
  TRACK 02 AUDIO
    TITLE "5:cjc083_0742"
    INDEX 01 00:00:23
  TRACK 03 AUDIO
    TITLE "0:"
    INDEX 01 00:01:42
  TRACK 04 AUDIO
    TITLE "6:cjc083_0743"
    INDEX 01 00:02:04
  TRACK 05 AUDIO
    TITLE "0:"
    INDEX 01 00:03:33
  TRACK 06 AUDIO
    TITLE "5:cjc083_0744"
    INDEX 01 00:03:74
  TRACK 07 AUDIO
    TITLE "0:"
    INDEX 01 00:05:30
  TRACK 08 AUDIO
    TITLE "6:cjc083_0745"
    INDEX 01 00:05:73
  TRACK 09 AUDIO
    TITLE "0:"
    INDEX 01 00:07:15
  TRACK 10 AUDIO
    TITLE "5:cjc083_0746"
    INDEX 01 00:07:52
  TRACK 11 AUDIO
    TITLE "0:"
    INDEX 01 00:08:66
  TRACK 12 AUDIO
    TITLE "6:cjc083_0747"
    INDEX 01 00:09:34
  TRACK 13 AUDIO
    TITLE "0:"
    INDEX 01 00:10:63
  TRACK 14 AUDIO
    TITLE "5:cjc083_0748"
    INDEX 01 00:11:29
  TRACK 15 AUDIO
    TITLE "0:"
    INDEX 01 00:12:54
  TRACK 16 AUDIO
    TITLE "6:cjc083_0749"
    INDEX 01 00:13:20
  TRACK 17 AUDIO
    TITLE "0:"
    INDEX 01 00:14:54
  TRACK 18 AUDIO
    TITLE "5:cjc083_0750"
    INDEX 01 00:15:28
  TRACK 19 AUDIO
    TITLE "0:"
    INDEX 01 00:16:42
  TRACK 20 AUDIO
    TITLE "6:cjc083_0751"
    INDEX 01 00:17:12
  TRACK 21 AUDIO
    TITLE "0:"
    INDEX 01 00:18:15
  TRACK 22 AUDIO
    TITLE "5:cjc083_0752"
    INDEX 01 00:18:64
  TRACK 23 AUDIO
    TITLE "0:"
    INDEX 01 00:20:30
  TRACK 24 AUDIO
    TITLE "6:cjc083_0753"
    INDEX 01 00:21:11
  TRACK 25 AUDIO
    TITLE "0:"
    INDEX 01 00:23:03
  TRACK 26 AUDIO
    TITLE "5:cjc083_0754"
    INDEX 01 00:23:44
  TRACK 27 AUDIO
    TITLE "0:"
    INDEX 01 00:24:47
  TRACK 28 AUDIO
    TITLE "6:cjc083_0755"
    INDEX 01 00:25:21
  TRACK 29 AUDIO
    TITLE "0:"
    INDEX 01 00:26:11
  TRACK 30 AUDIO
    TITLE "5:cjc083_0756"
    INDEX 01 00:26:54
  TRACK 31 AUDIO
    TITLE "0:"
    INDEX 01 00:28:00
  TRACK 32 AUDIO
    TITLE "6:cjc083_0757"
    INDEX 01 00:28:43
  TRACK 33 AUDIO
    TITLE "0:"
    INDEX 01 00:29:50
  TRACK 34 AUDIO
    TITLE "5:cjc083_0758"
    INDEX 01 00:30:18
  TRACK 35 AUDIO
    TITLE "0:"
    INDEX 01 00:31:35
  TRACK 36 AUDIO
    TITLE "6:cjc083_0759"
    INDEX 01 00:32:05
  TRACK 37 AUDIO
    TITLE "0:"
    INDEX 01 00:33:62
  TRACK 38 AUDIO
    TITLE "5:cjc083_0760"
    INDEX 01 00:34:34
  TRACK 39 AUDIO
    TITLE "0:"
    INDEX 01 00:35:47
  TRACK 40 AUDIO
    TITLE "6:cjc083_0761"
    INDEX 01 00:36:21
  TRACK 41 AUDIO
    TITLE "0:"
    INDEX 01 00:37:48
  TRACK 42 AUDIO
    TITLE "5:cjc083_0762"
    INDEX 01 00:38:20
  TRACK 43 AUDIO
    TITLE "0:"
    INDEX 01 00:39:51
  TRACK 44 AUDIO
    TITLE "6:cjc083_0763"
    INDEX 01 00:40:19
  TRACK 45 AUDIO
    TITLE "0:"
    INDEX 01 00:42:29
  TRACK 46 AUDIO
    TITLE "5:cjc083_0764"
    INDEX 01 00:42:70
  TRACK 47 AUDIO
    TITLE "0:"
    INDEX 01 00:44:14
  TRACK 48 AUDIO
    TITLE "6:cjc083_0765"
    INDEX 01 00:44:63
  TRACK 49 AUDIO
    TITLE "0:"
    INDEX 01 00:45:69
  TRACK 50 AUDIO
    TITLE "5:cjc083_0766"
    INDEX 01 00:46:41
  TRACK 51 AUDIO
    TITLE "0:"
    INDEX 01 00:47:54
  TRACK 52 AUDIO
    TITLE "6:cjc083_0767"
    INDEX 01 00:48:28
  TRACK 53 AUDIO
    TITLE "0:"
    INDEX 01 00:49:39
  TRACK 54 AUDIO
    TITLE "5:cjc083_0768"
    INDEX 01 00:50:09
  TRACK 55 AUDIO
    TITLE "0:"
    INDEX 01 00:51:09
  TRACK 56 AUDIO
    TITLE "6:cjc083_0769"
    INDEX 01 00:51:56
  TRACK 57 AUDIO
    TITLE "0:"
    INDEX 01 00:53:60
  TRACK 58 AUDIO
    TITLE "5:cjc083_0770"
    INDEX 01 00:54:27
  TRACK 59 AUDIO
    TITLE "0:"
    INDEX 01 00:55:36
  TRACK 60 AUDIO
    TITLE "6:cjc083_0771"
    INDEX 01 00:56:04
  TRACK 61 AUDIO
    TITLE "0:"
    INDEX 01 00:57:72
  TRACK 62 AUDIO
    TITLE "7:cjc083_0772"
    INDEX 01 00:59:36
  TRACK 63 AUDIO
    TITLE "0:"
    INDEX 01 01:09:38
